<svg width="144" height="144" viewBox="0 0 144 144" fill="none" xmlns="http://www.w3.org/2000/svg">
<g clip-path="url(#clip0_3_149)">
<path fill-rule="evenodd" clip-rule="evenodd" d="M52.5653 0.354667C50.6807 0.356417 48.8149 0.729395 47.0745 1.4523C45.334 2.17521 43.7531 3.23388 42.4218 4.56786C41.0905 5.90184 40.0351 7.48499 39.3158 9.22691C38.5964 10.9688 38.2272 12.8354 38.2293 14.72C38.2276 16.6044 38.597 18.4707 39.3165 20.2123C40.036 21.9539 41.0915 23.5367 42.4227 24.8704C43.754 26.2041 45.3348 27.2625 47.0751 27.9853C48.8154 28.708 50.681 29.0809 52.5653 29.0827H66.9013V14.72C66.9034 12.8354 66.5343 10.9688 65.8149 9.22691C65.0956 7.48499 64.0402 5.90184 62.7089 4.56786C61.3776 3.23388 59.7966 2.17521 58.0562 1.4523C56.3158 0.729395 54.45 0.356417 52.5653 0.354667ZM52.5653 38.6613H14.336C12.4516 38.6631 10.586 39.036 8.84577 39.7587C7.1055 40.4815 5.52462 41.5399 4.1934 42.8736C2.86218 44.2073 1.80669 45.7901 1.08718 47.5317C0.367679 49.2733 -0.00174284 51.1396 8.92799e-06 53.024C-0.00209329 54.9086 0.36707 56.7752 1.08642 58.5171C1.80576 60.259 2.8612 61.8422 4.19246 63.1761C5.52371 64.5101 7.10471 65.5688 8.84515 66" fill="#36C5A2"/>
<path fill-rule="evenodd" clip-rule="evenodd" d="M143.36 53.024C143.362 51.1396 142.992 49.2733 142.273 47.5317C141.553 45.7901 140.498 44.2073 139.167 42.8736C137.835 41.5399 136.254 40.4815 134.514 39.7587C132.774 39.036 130.908 38.6631 129.024 38.6613C127.14 38.6631 125.274 39.036 123.534 39.7587C121.793 40.4815 120.213 41.5399 118.881 42.8736C117.55 44.2073 116.495 45.7901 115.775 47.5317C115.056 49.2733 114.686 51.1396 114.688 53.024V67.3893H129.024C130.909 67.3876 132.774 67.0146 134.515 66.2917C136.255 65.5688 137.836 64.5101 139.168 63.1761C140.499 61.8422 141.554 60.259 142.274 58.5171C142.993 56.7752 143.362 54.9086 143.36 53.024ZM105.131 53.024V14.72C105.133 12.8354 104.764 10.9688 104.044 9.22691C103.325 7.48499 102.269 5.90184 100.938 4.56786C99.6069 3.23388 98.0259 2.17521 96.2855 1.4523C94.545 0.729395 92.6792 0.356417 90.7946 0.354667C88.91 0.356417 87.0442 0.729395 85.3038 1.4523C83.5633 2.17521 81.9823 3.23388 80.6511 4.56786C79.3198 5.90184 78.2644 7.48499 77.545 9.22691C76.82" fill="#2EB32A"/>
<path fill-rule="evenodd" clip-rule="evenodd" d="M90.7946 144C92.6792 143.998 94.545 143.625 96.2855 142.902C98.0259 142.179 99.6069 141.121 100.938 139.787C102.269 138.453 103.325 136.87 104.044 135.128C104.764 133.386 105.133 131.519 105.131 129.635C105.132 127.75 104.763 125.884 104.043 124.142C103.324 122.401 102.268 120.818 100.937 119.484C99.606 118.151 98.0251 117.092 96.2849 116.369C94.5446 115.647 92.679 115.274 90.7946 115.272H76.4586V129.635C76.4565 131.519 76.8257 133.386 77.545 135.128C78.2644 136.87 79.3198 138.453 80.6511 139.787C81.9823 141.121 83.5633 142.179 85.3038 142.902C87.0442 143.625 88.91 143.998 90.7946 144ZM90.7946 105.693H129.024C130.908 105.692 132.774 105.319 134.514 104.596C136.254 103.873 137.835 102.815 139.167 101.481C140.498 100.147 141.553 98.5646 142.273 96.8229C142.992 95.0813 143.362 93.215 143.36 91.3307C143.362 89.4461 142.993 87.5795 142.274 85.8376C141.554 84.0957 140.499 82.5125 139.168 81.1785C137.836 79.8445 136.255 78.7859 134.515 78.063C132.774 77" fill="#ECBAF1"/>
<path fill-rule="evenodd" clip-rule="evenodd" d="M1.21506e-05 91.3307C-0.00173962 93.215 0.367682 95.0813 1.08719 96.8229C1.80669 98.5646 2.86218 100.147 4.1934 101.481C5.52463 102.815 7.1055 103.873 8.84577 104.596C10.586 105.319 12.4516 105.692 14.336 105.693C16.2204 105.692 18.086 105.319 19.8263 104.596C21.5665 103.873 23.1474 102.815 24.4786 101.481C25.8098 100.147 26.8653 98.5646 27.5848 96.8229C28.3043 95.0813 28.6738 93.215 28.672 91.3307V76.9653H14.336C12.4512 76.9671 10.5852 77.3401 8.84454 78.0632C7.10392 78.7863 5.52281 79.8452 4.19152 81.1795C2.86023 82.5137 1.80484 84.0972 1.08565 85.8394C0.366464 87.5817 -0.00244059 89.4485 1.21506e-05 91.3333V91.3307ZM38.2293 91.3307V129.635C38.2272 131.519 38.5964 133.386 39.3158 135.128C40.0351 136.87 41.0905 138.453 42.4218 139.787C43.7531 141.121 45.334 142.179 47.0745 142.902C48.8149 143.625 50.6807 143.998 52.5653 144C54.45 143.998 56.3158 143.625 58.0562 142.902C59.7966 142.179 61.3776 141.121 62.7089 139.787C64.0402 138.453 65.0956 136.87" fill="#E0132A"/>
</g>
<defs>
<clipPath id="clip0_3_149">
<rect width="144" height="144" fill="white"/>
</clipPath>
</defs>
</svg>
